<?xml version="1.0" encoding="utf-8"?>
<!-- Generator: Adobe Illustrator 16.0.0, SVG Export Plug-In . SVG Version: 6.00 Build 0)  -->
<!DOCTYPE svg PUBLIC "-//W3C//DTD SVG 1.1 Tiny//EN" "http://www.w3.org/Graphics/SVG/1.1/DTD/svg11-tiny.dtd">
<svg version="1.1" baseProfile="tiny" id="Layer_1" xmlns="http://www.w3.org/2000/svg" xmlns:xlink="http://www.w3.org/1999/xlink"
	 x="0px" y="0px" width="105px" height="45px" viewBox="0 0 105 45" overflow="scroll" xml:space="preserve">
<g>
	<path fill="#FFFFFF" d="M20.036,15.152v19.72h-2.38v-24.14h1.836l15.979,20.094v-20.06h2.381v24.106h-2.074L20.036,15.152z"/>
	<path fill="#FFFFFF" d="M43.427,13.452v-3.4h2.313v3.4H43.427z M43.427,34.872V17.158h2.313v17.714H43.427z"/>
	<path fill="#FFFFFF" d="M51.281,17.158l5.303,6.936l0.273,0.51l0.271-0.51l5.303-6.936h2.482l-6.766,8.908l6.766,8.806h-2.482
		l-5.303-6.901l-0.271-0.477l-0.273,0.477l-5.303,6.901h-2.482l6.766-8.806l-6.766-8.908H51.281z"/>
	<path fill="#FFFFFF" d="M74.775,35.212c-1.293,0-2.471-0.243-3.537-0.731c-1.064-0.486-1.988-1.149-2.77-1.988
		c-0.783-0.838-1.389-1.813-1.82-2.924c-0.43-1.111-0.645-2.278-0.645-3.502c0-1.246,0.221-2.426,0.662-3.536
		s1.055-2.085,1.836-2.924c0.783-0.838,1.705-1.507,2.771-2.006c1.064-0.499,2.232-0.748,3.502-0.748s2.441,0.25,3.52,0.748
		c1.076,0.499,2.006,1.167,2.787,2.006c0.781,0.839,1.395,1.814,1.836,2.924s0.664,2.29,0.664,3.536
		c0,1.224-0.217,2.391-0.646,3.502c-0.432,1.11-1.037,2.086-1.818,2.924c-0.783,0.839-1.713,1.502-2.789,1.988
		C77.252,34.969,76.066,35.212,74.775,35.212z M68.35,26.1c0,0.998,0.17,1.922,0.51,2.771s0.799,1.598,1.377,2.244
		s1.258,1.15,2.039,1.513c0.783,0.362,1.615,0.544,2.5,0.544s1.717-0.188,2.498-0.561c0.783-0.374,1.469-0.885,2.059-1.53
		c0.588-0.646,1.053-1.399,1.393-2.261s0.51-1.791,0.51-2.788c0-0.975-0.17-1.898-0.51-2.771c-0.34-0.873-0.805-1.633-1.393-2.279
		c-0.59-0.646-1.275-1.156-2.059-1.53c-0.781-0.374-1.613-0.561-2.498-0.561s-1.711,0.187-2.482,0.561s-1.451,0.89-2.039,1.547
		c-0.59,0.658-1.055,1.423-1.395,2.295C68.52,24.168,68.35,25.104,68.35,26.1z"/>
	<path fill="#FFFFFF" d="M87.117,34.872V31.54h2.006v3.332H87.117z"/>
</g>
<path fill="#FFFFFF" d="M103,2v41H2V2H103 M104,0H1C0.448,0,0,0.448,0,1v43c0,0.553,0.448,1,1,1h103c0.553,0,1-0.447,1-1V1
	C105,0.448,104.553,0,104,0L104,0z"/>
</svg>
