<?xml version="1.0" standalone="no"?>
<!DOCTYPE svg PUBLIC "-//W3C//DTD SVG 20010904//EN"
 "http://www.w3.org/TR/2001/REC-SVG-20010904/DTD/svg10.dtd">
<svg version="1.0" xmlns="http://www.w3.org/2000/svg"
 width="2600.000000pt" height="1800.000000pt" viewBox="0 0 2600.000000 1800.000000"
 preserveAspectRatio="xMidYMid meet">
<metadata>
Created by potrace 1.15, written by Peter Selinger 2001-2017
</metadata>
<g transform="translate(0.000000,1800.000000) scale(0.100000,-0.100000)"
fill="#000000" stroke="none">
<path d="M0 9000 l0 -9000 13000 0 13000 0 0 9000 0 9000 -13000 0 -13000 0 0
-9000z m6000 2846 c572 -81 977 -276 1100 -531 75 -153 94 -362 59 -633 l-11
-83 31 -31 c17 -17 34 -41 37 -54 3 -13 9 -22 13 -20 11 7 90 -31 130 -63 32
-25 47 -29 131 -35 539 -38 707 -64 793 -123 83 -58 169 -191 187 -293 59
-333 131 -636 255 -1071 100 -350 168 -548 243 -704 78 -164 73 -105 54 -645
-7 -195 -16 -535 -21 -755 -8 -384 -9 -402 -31 -453 -29 -67 -102 -134 -178
-163 -31 -11 -97 -28 -147 -36 -102 -16 -128 -16 -1135 22 -1203 45 -1378 50
-1995 50 -626 0 -833 -6 -2005 -51 -847 -33 -1102 -35 -1190 -11 -143 39 -233
109 -264 205 -16 51 -19 118 -36 917 -6 253 -15 519 -21 592 -12 157 -9 175
66 328 99 203 235 644 385 1245 64 255 83 347 104 485 8 52 24 114 39 145 34
70 105 159 156 194 42 29 145 60 239 71 l57 7 24 54 c64 147 215 191 376 110
l46 -24 13 32 c7 18 26 41 40 52 27 19 27 20 17 84 -39 241 -17 508 56 660 37
78 175 211 283 275 214 125 536 220 860 254 58 6 119 13 135 15 17 2 246 3
510 1 380 -2 504 -6 595 -19z m15234 -1168 c3 -7 7 -25 10 -40 6 -28 8 -28 82
-28 147 0 307 -49 386 -119 103 -90 107 -235 12 -450 -48 -109 -155 -252 -288
-389 -118 -120 -132 -132 -143 -116 -7 10 -13 23 -13 30 0 7 52 70 116 141
207 228 296 369 330 520 20 93 13 133 -33 184 -86 95 -301 157 -412 118 -30
-11 -31 -13 -26 -58 14 -120 55 -784 50 -801 -6 -19 -42 -37 -52 -26 -3 3 -19
191 -35 418 -17 227 -32 414 -33 416 -2 2 -21 -6 -42 -17 -77 -39 -83 13 -8
74 42 35 75 94 75 135 0 22 18 27 24 8z m1695 -37 c12 -8 15 -44 15 -184 1
-97 4 -178 7 -182 4 -3 46 12 94 35 95 43 120 48 129 25 11 -28 -5 -41 -116
-96 l-111 -54 6 -327 c6 -329 4 -368 -17 -368 -37 1 -38 11 -48 336 -6 176
-11 320 -13 322 -2 2 -28 -4 -59 -14 -45 -14 -58 -15 -70 -4 -33 27 -19 47 57
77 l72 29 3 199 c2 144 6 201 15 207 15 10 19 10 36 -1z m-13091 -28 c69 -51
28 -165 -131 -360 -37 -45 -63 -84 -59 -87 5 -3 31 2 58 10 65 20 169 21 216
1 42 -18 78 -68 78 -109 0 -112 -237 -393 -426 -504 -43 -26 -45 -26 -59 -8
-8 11 -13 22 -12 25 1 4 38 35 82 69 109 86 276 254 309 313 59 101 31 157
-79 157 -131 0 -310 -88 -358 -175 -6 -11 -14 -105 -18 -210 -4 -104 -10 -198
-14 -207 -4 -10 -15 -18 -26 -18 -17 0 -18 23 -21 543 -2 298 -1 548 1 555 7
26 33 10 52 -33 l20 -44 57 33 c50 29 111 53 177 70 43 10 126 -1 153 -21z
m2424 -528 c5 -385 4 -553 -3 -562 -8 -9 -16 -10 -30 -2 -18 9 -19 30 -19 558
0 301 3 551 7 555 4 4 14 5 23 4 13 -3 16 -68 22 -553z m1300 300 c8 -251 13
-315 26 -315 4 0 60 20 126 44 194 73 229 113 230 265 1 53 -3 129 -8 168 -8
65 -7 73 9 79 12 5 24 0 35 -14 15 -18 19 -57 25 -274 9 -333 10 -767 1 -795
-9 -28 -32 -30 -46 -4 -6 12 -10 129 -10 311 0 230 -3 291 -12 287 -7 -3 -80
-33 -162 -66 -82 -34 -160 -71 -173 -83 -37 -35 -45 -87 -42 -275 3 -150 2
-175 -13 -189 -9 -9 -24 -14 -32 -11 -14 6 -16 65 -16 560 0 305 3 557 7 561
4 4 16 6 28 4 19 -3 20 -12 27 -253z m731 103 c4 -83 7 -334 7 -559 0 -417 -1
-433 -37 -411 -7 5 -13 188 -18 556 -8 571 -8 565 31 566 7 0 13 -52 17 -152z
m159 -403 c4 -368 3 -554 -4 -562 -7 -9 -16 -10 -29 -2 -18 9 -19 30 -19 558
0 301 3 551 7 555 4 4 14 5 23 4 13 -3 16 -68 22 -553z m1272 549 c14 -5 16
-34 16 -218 0 -234 8 -346 23 -346 6 0 38 11 71 23 34 13 82 32 107 41 78 28
135 72 160 122 20 42 21 55 15 172 -3 70 -8 141 -12 159 -5 26 -3 32 17 38 54
18 60 -39 62 -646 2 -358 0 -439 -12 -452 -10 -13 -17 -15 -27 -6 -11 9 -14
71 -14 315 0 167 -2 304 -4 304 -2 0 -78 -30 -168 -66 -98 -39 -172 -75 -185
-89 -36 -40 -46 -122 -39 -293 8 -161 4 -182 -35 -182 -18 0 -19 19 -19 565 0
600 -2 577 44 559z m3638 -21 c42 -37 63 -128 33 -139 -20 -8 -42 11 -66 58
-24 47 -55 50 -102 9 -66 -58 -119 -188 -161 -394 -50 -242 -57 -408 -21 -478
31 -59 113 -75 194 -39 69 32 169 141 216 237 36 73 43 82 69 82 28 1 28 0 23
-39 -12 -95 -181 -292 -306 -359 -55 -29 -70 -33 -117 -29 -45 4 -61 11 -89
38 -43 41 -72 108 -80 185 -13 114 45 452 106 619 31 84 94 200 125 228 57 51
133 60 176 21z m852 11 c3 -9 6 -260 6 -559 0 -559 0 -561 -37 -548 -10 4 -13
124 -13 557 0 304 3 556 7 559 11 12 31 7 37 -9z m160 -534 c8 -581 7 -592
-35 -569 -18 9 -19 30 -19 558 0 301 3 551 7 554 3 4 14 7 23 7 16 0 18 -44
24 -550z m-6230 138 c3 -62 8 -246 12 -409 5 -277 4 -297 -12 -303 -41 -16
-43 2 -50 422 l-7 402 25 0 c26 0 26 0 32 -112z m-3098 67 c3 -13 -30 -157
-81 -346 -126 -473 -112 -429 -145 -429 -27 0 -30 4 -54 83 -88 294 -197 682
-194 696 2 9 13 16 27 16 22 0 27 -11 72 -165 140 -475 142 -482 151 -466 21
38 136 449 159 569 5 27 14 56 20 63 14 18 38 7 45 -21z m695 5 c4 -14 8 -86
9 -160 l1 -135 21 55 c57 149 154 230 283 238 65 4 90 -9 83 -45 -2 -13 -17
-20 -58 -25 -158 -23 -257 -118 -296 -283 -11 -47 -17 -124 -18 -235 -1 -91
-5 -171 -9 -177 -5 -7 -17 -13 -27 -13 -10 0 -22 6 -27 13 -13 20 -23 770 -11
785 16 19 41 10 49 -18z m4817 16 c64 -33 112 -178 112 -337 0 -120 -12 -187
-49 -265 -50 -107 -141 -184 -217 -184 -105 0 -172 149 -162 358 13 268 183
497 316 428z m227 3 c4 -6 8 -133 10 -282 1 -159 7 -295 14 -327 12 -58 38
-103 63 -108 45 -9 155 124 182 221 10 33 17 126 21 257 7 239 9 250 35 250
36 0 40 -28 28 -201 -12 -190 -5 -404 18 -504 28 -129 28 -132 6 -137 -11 -3
-24 -3 -30 1 -5 3 -17 51 -27 106 -10 55 -20 103 -24 107 -4 4 -27 -20 -51
-53 -50 -68 -113 -127 -146 -135 -59 -15 -114 54 -140 175 -18 88 -20 611 -2
629 15 15 35 15 43 1z m5382 -33 c53 -57 77 -155 78 -311 0 -110 -4 -141 -24
-203 -32 -98 -83 -169 -151 -209 -71 -43 -117 -44 -163 -3 -59 51 -80 116 -85
260 -5 145 8 212 62 325 83 173 200 232 283 141z m402 34 c29 -15 52 -85 58
-177 5 -72 4 -83 -10 -83 -19 0 -41 39 -52 90 -19 96 -25 110 -49 110 -47 0
-94 -92 -126 -250 -34 -165 -14 -321 50 -390 28 -30 34 -32 80 -28 93 9 148
78 172 218 12 67 14 71 38 68 24 -3 25 -6 25 -63 0 -123 -91 -249 -204 -282
-103 -30 -172 19 -214 152 -39 124 -22 385 35 516 39 93 137 152 197 119z
m857 -9 c38 -23 77 -101 94 -188 19 -96 9 -294 -19 -365 -30 -78 -77 -146
-129 -185 -142 -108 -257 -5 -269 242 -6 127 13 223 67 330 79 159 171 218
256 166z m212 7 c8 -8 12 -60 13 -162 0 -116 3 -145 11 -126 46 108 73 153
119 194 55 49 123 76 193 76 52 0 69 -11 64 -41 -2 -18 -10 -25 -33 -27 -107
-11 -204 -63 -256 -139 -59 -85 -72 -146 -77 -360 -4 -202 -9 -222 -50 -209
-17 6 -20 20 -26 129 -3 67 -7 243 -8 390 -2 225 0 270 12 278 20 12 24 11 38
-3z m-8713 -33 l0 -30 -80 -5 c-91 -6 -146 -30 -190 -82 -38 -45 -55 -89 -55
-142 0 -87 62 -121 185 -102 161 25 196 9 203 -91 3 -52 0 -63 -27 -104 -67
-100 -262 -209 -373 -209 -36 0 -64 47 -44 75 11 15 16 16 36 5 108 -58 391
138 351 243 -16 42 -40 48 -117 32 -192 -41 -283 9 -270 149 16 163 164 299
321 293 60 -2 60 -2 60 -32z m2690 0 l0 -30 -80 -5 c-114 -8 -181 -49 -221
-134 -65 -140 0 -217 161 -192 33 5 82 9 108 10 42 1 52 -3 73 -27 36 -42 34
-118 -5 -179 -53 -83 -201 -174 -324 -200 -51 -11 -58 -10 -77 7 -28 25 -24
72 5 67 109 -19 175 -1 270 76 99 79 129 160 72 196 -19 13 -31 13 -87 1 -193
-42 -290 9 -275 145 17 168 162 303 320 297 60 -2 60 -2 60 -32z m-7246 6 c55
-28 111 -94 111 -131 0 -35 -49 -75 -210 -170 -58 -34 -106 -64 -108 -65 -2
-1 4 -46 13 -100 34 -213 101 -275 225 -212 73 36 111 108 145 270 4 20 11 27
23 25 38 -7 19 -130 -36 -231 -34 -63 -110 -133 -158 -146 -41 -10 -104 -3
-140 17 -52 28 -103 145 -119 274 -7 53 -7 54 -40 54 -37 0 -66 19 -59 38 3 7
20 20 38 28 33 16 33 17 45 120 13 121 46 199 95 229 41 25 124 25 175 0z
m1034 6 c72 -31 134 -107 123 -152 -6 -25 -101 -94 -233 -169 -96 -55 -94 -48
-64 -193 32 -153 73 -202 162 -190 93 12 168 109 192 251 9 52 15 66 29 66 27
0 32 -40 14 -110 -34 -132 -118 -243 -203 -268 -46 -13 -115 -2 -152 25 -39
29 -81 114 -97 201 -8 42 -17 87 -20 99 -3 15 -9 20 -19 17 -24 -9 -76 16 -73
35 2 9 20 24 41 34 34 16 37 20 37 60 0 127 42 245 100 285 38 26 112 30 163
9z m1411 -3 c3 -8 -1 -60 -9 -116 -23 -153 -162 -976 -175 -1036 -13 -59 -36
-79 -66 -58 -17 13 -17 21 23 222 l41 209 -140 347 c-77 191 -138 355 -134
363 8 21 33 30 50 16 7 -6 64 -144 127 -306 79 -205 116 -290 121 -278 4 10
28 149 53 308 59 376 52 345 80 345 12 0 26 -7 29 -16z m5229 0 c63 -32 117
-98 117 -143 0 -25 -48 -62 -195 -151 -66 -40 -121 -74 -123 -75 -7 -6 20
-161 36 -214 9 -31 31 -70 49 -89 31 -32 36 -34 84 -30 102 10 173 94 200 238
16 90 16 90 34 84 61 -24 -14 -248 -113 -334 -53 -47 -100 -62 -159 -51 -57
11 -87 33 -116 83 -31 54 -45 98 -60 190 -12 70 -14 73 -38 70 -30 -4 -76 29
-65 47 4 6 22 17 40 25 31 13 32 14 43 114 14 123 46 202 95 232 41 25 126 27
171 4z m1954 -10 c17 -24 21 -55 28 -224 3 -80 14 -194 25 -255 46 -257 46
-285 1 -285 -28 0 -42 59 -48 213 -3 81 -9 147 -12 146 -3 0 -30 -49 -58 -107
-81 -165 -174 -257 -235 -233 -64 25 -91 87 -90 206 1 205 113 476 226 547 39
24 143 19 163 -8z m-4102 -1288 c56 -24 59 -46 49 -442 l-9 -349 -29 -3 -29
-4 6 129 c13 251 20 543 13 543 -3 0 -54 -50 -112 -110 -121 -125 -206 -178
-265 -166 -46 9 -59 24 -59 65 0 80 95 219 196 286 93 62 172 79 239 51z m432
-34 c60 -78 88 -240 72 -412 -10 -106 -28 -171 -66 -241 -32 -59 -70 -89 -122
-96 -32 -4 -43 0 -73 26 -78 68 -134 270 -125 451 6 121 31 201 80 257 42 47
80 63 147 60 51 -2 56 -4 87 -45z m444 22 c20 -22 24 -35 23 -88 -1 -109 -88
-328 -207 -523 -67 -110 -78 -104 133 -68 127 21 147 23 159 10 8 -8 12 -17 9
-20 -6 -7 -384 -75 -415 -75 -12 0 -24 3 -27 8 -2 4 27 56 65 117 136 213 239
444 239 532 0 44 -23 83 -48 83 -23 0 -66 -28 -137 -88 -60 -52 -85 -63 -85
-39 0 17 85 99 136 130 38 23 91 44 120 46 6 1 21 -11 35 -25z m617 10 c59
-41 102 -188 102 -352 0 -256 -85 -432 -209 -432 -22 0 -38 11 -68 44 -77 89
-118 250 -110 435 7 167 46 259 130 300 50 25 124 27 155 5z m-365 -166 c4
-95 7 -271 7 -391 0 -188 -2 -218 -16 -224 -8 -3 -19 -2 -23 3 -5 5 -11 183
-14 397 l-6 387 23 0 c23 0 23 -1 29 -172z m3947 -178 l0 -30 -1630 0 c-1400
0 -1630 2 -1630 14 0 8 -3 21 -6 30 -6 15 142 16 1630 16 l1636 0 0 -30z
m-5768 -30 l-4 -30 -1618 0 -1618 0 -4 30 -5 30 1627 0 1627 0 -5 -30z m-4101
-680 c12 -7 19 -21 19 -41 0 -24 -14 -46 -64 -100 -204 -220 -310 -396 -368
-607 -32 -116 -32 -358 0 -459 58 -187 240 -361 441 -424 62 -19 79 -43 54
-79 -25 -35 -101 -24 -210 30 -73 36 -105 60 -184 139 -84 84 -102 109 -148
201 -61 123 -81 208 -81 342 0 261 82 498 250 724 68 89 246 284 261 284 6 0
19 -5 30 -10z m2266 -39 c235 -187 384 -518 383 -852 -1 -139 -54 -323 -154
-534 -103 -215 -183 -325 -237 -325 -38 0 -62 43 -37 63 51 39 208 353 266
530 54 164 65 246 52 370 -24 236 -85 395 -212 554 -27 34 -72 81 -101 103
-29 23 -55 49 -58 58 -10 25 18 71 43 72 3 0 28 -17 55 -39z m3143 -107 c13
-12 12 -18 -3 -47 l-18 -32 -115 -2 c-126 -2 -391 -34 -519 -61 l-80 -17 -3
-315 c-1 -173 0 -325 3 -337 4 -19 14 -12 89 62 111 110 201 156 314 163 68 3
81 1 112 -20 76 -51 107 -181 76 -319 -51 -230 -236 -415 -532 -533 -114 -45
-129 -45 -143 -4 -15 41 -10 46 107 91 135 53 227 111 307 191 163 164 216
391 110 474 -69 54 -157 8 -356 -185 -80 -79 -149 -143 -151 -143 -3 0 -11 20
-17 45 -22 89 -33 322 -29 620 l4 300 25 4 c156 23 742 87 769 83 19 -2 42
-11 50 -18z m5521 16 c18 -10 19 -22 12 -365 l-6 -355 30 0 c17 0 67 7 110 15
43 8 99 15 126 15 l47 0 0 -35 c0 -47 -31 -62 -146 -70 -49 -4 -107 -11 -128
-17 l-39 -10 5 -336 c4 -185 4 -343 1 -349 -3 -7 -22 -13 -43 -13 -75 0 -70
-25 -70 347 l0 334 -37 -7 c-21 -4 -175 -33 -342 -65 -168 -32 -306 -57 -308
-56 -1 2 90 122 203 268 232 298 380 502 445 613 53 91 89 113 140 86z
m-10191 -6 c17 -4 47 -21 66 -39 27 -26 34 -40 34 -71 0 -79 -86 -208 -239
-359 -39 -38 -71 -73 -71 -77 0 -3 15 -2 33 3 17 5 71 10 119 10 114 1 187
-30 257 -107 58 -64 76 -118 68 -210 -16 -210 -246 -421 -648 -595 -57 -25
-101 -38 -115 -35 -22 6 -37 36 -25 53 3 5 76 43 161 85 196 97 295 163 390
258 92 91 123 150 124 235 0 72 -24 125 -82 177 -88 79 -172 78 -350 -5 -145
-69 -203 -80 -245 -47 -15 12 -27 26 -25 30 2 4 107 96 233 204 234 201 298
269 293 314 -10 83 -182 93 -370 22 -80 -30 -152 -80 -156 -107 -4 -31 -26
-29 -51 3 -29 36 -27 48 16 94 94 105 419 196 583 164z m1147 -5 c71 -26 140
-126 182 -264 69 -223 69 -600 0 -855 -43 -160 -142 -309 -227 -343 -150 -60
-236 -13 -328 178 -128 268 -170 662 -99 940 42 165 147 296 268 334 69 22
161 27 204 10z m2408 -16 c46 -25 85 -64 111 -113 30 -55 27 -242 -5 -335 -31
-90 -59 -146 -116 -229 l-46 -68 65 -68 c143 -152 206 -377 140 -508 -47 -95
-158 -147 -314 -146 -105 1 -146 13 -203 64 -131 114 -95 421 67 583 l53 54
-43 23 c-141 74 -234 276 -207 450 24 154 111 261 248 307 60 20 200 12 250
-14z m1818 13 c18 -7 43 -25 56 -39 20 -23 23 -33 19 -81 -7 -79 -52 -149
-192 -293 -66 -68 -117 -125 -114 -128 2 -3 20 0 39 6 59 17 189 13 248 -10
144 -55 219 -182 191 -325 -36 -184 -211 -354 -527 -511 -170 -84 -226 -103
-247 -86 -9 7 -16 23 -16 36 0 18 15 28 88 59 100 43 290 149 366 205 107 80
191 179 216 255 32 97 -13 214 -104 271 -44 26 -58 30 -125 30 -72 0 -83 -3
-196 -57 -163 -78 -202 -84 -253 -39 l-23 19 247 212 c135 117 254 227 265
244 27 44 25 92 -5 111 -83 55 -359 0 -467 -93 -21 -18 -39 -40 -39 -48 0 -18
-10 -18 -38 2 -26 18 -29 60 -6 93 78 110 489 222 617 167z m1786 -6 c94 -47
162 -189 203 -420 19 -110 16 -431 -6 -547 -58 -320 -173 -488 -346 -508 -68
-8 -97 4 -151 62 -52 54 -85 112 -124 212 -73 190 -110 457 -94 676 26 351
174 541 422 544 39 1 70 -5 96 -19z m1901 14 c17 -4 47 -21 66 -39 27 -26 34
-40 34 -71 0 -79 -86 -208 -239 -359 -39 -38 -71 -73 -71 -77 0 -3 15 -2 33 3
17 5 71 10 119 10 114 1 187 -30 257 -107 83 -90 94 -208 32 -340 -38 -81
-167 -215 -277 -287 -153 -100 -411 -222 -450 -213 -22 6 -37 36 -25 53 3 5
76 43 161 85 196 97 295 163 390 258 92 91 123 150 124 235 0 72 -24 125 -82
177 -88 79 -172 78 -350 -5 -145 -69 -203 -80 -245 -47 -15 12 -27 26 -25 30
2 4 107 96 233 204 234 201 298 269 293 314 -10 83 -182 93 -370 22 -80 -30
-152 -80 -156 -107 -4 -31 -26 -29 -51 3 -29 36 -27 48 16 94 94 105 419 196
583 164z m-818 -14 c52 -15 95 -63 107 -122 14 -65 14 -375 -1 -916 -11 -417
-13 -444 -30 -453 -26 -14 -76 -15 -89 -2 -7 7 -6 138 5 419 9 225 16 501 16
614 l0 205 -52 -60 c-29 -33 -108 -118 -177 -188 -190 -194 -312 -267 -447
-267 -62 0 -68 2 -101 35 -35 35 -36 36 -31 105 14 188 231 464 458 580 107
55 248 76 342 50z m-7748 -10 l26 -10 1 -442 c1 -244 4 -562 8 -708 4 -146 5
-270 3 -277 -6 -21 -58 -36 -81 -23 -18 9 -21 20 -21 78 0 37 -5 361 -10 721
-6 359 -7 657 -4 662 7 12 46 11 78 -1z m6051 -867 c13 -12 15 -26 10 -57 -3
-23 -9 -44 -13 -47 -10 -9 -749 -32 -762 -24 -17 11 -32 57 -26 81 3 12 18 26
33 33 16 6 155 14 333 19 168 5 328 10 357 10 36 2 56 -3 68 -15z"/>
<path d="M5034 11479 c-400 -21 -686 -106 -812 -243 -23 -25 -44 -55 -47 -68
-27 -120 -41 -340 -26 -426 11 -66 40 -135 80 -190 20 -27 23 -41 19 -86 -4
-54 -4 -55 21 -51 49 8 640 16 665 9 25 -6 26 -10 26 -71 0 -41 14 -119 39
-221 79 -314 127 -610 139 -857 l7 -130 370 0 370 0 7 125 c13 247 58 529 134
840 28 112 46 210 47 248 l1 62 32 0 c26 0 33 5 38 25 4 14 37 56 74 93 86 87
160 123 260 130 68 4 74 7 84 31 14 36 14 246 -1 361 -15 115 -41 164 -114
219 -130 97 -308 153 -595 186 -146 17 -603 25 -818 14z"/>
<path d="M3645 10565 c-49 -17 -85 -57 -85 -94 0 -31 34 -81 55 -81 9 0 7 -20
-12 -82 -77 -265 -173 -692 -173 -773 0 -60 21 -153 50 -219 69 -163 251 -351
422 -437 112 -57 123 -45 131 145 8 166 14 199 96 508 104 393 113 509 52 664
-17 44 -51 110 -76 145 l-45 64 55 3 c45 2 58 7 71 26 30 47 -15 114 -91 135
-61 17 -401 13 -450 -4z m251 -1211 c54 -36 63 -120 18 -173 -67 -81 -204 -31
-204 74 0 96 105 152 186 99z"/>
<path d="M6619 10571 c-69 -22 -106 -69 -94 -122 6 -27 9 -29 56 -29 l50 0
-39 -47 c-52 -63 -84 -122 -117 -213 -25 -70 -27 -82 -21 -195 5 -128 15 -178
97 -515 49 -203 52 -225 59 -394 6 -157 9 -181 26 -193 26 -19 33 -17 120 27
202 101 388 307 447 495 33 107 29 200 -22 445 -34 166 -111 488 -137 573 -4
14 -19 17 -87 19 l-82 2 75 3 c43 2 83 -1 95 -7 12 -6 39 -10 60 -8 33 2 41 8
49 31 20 55 -23 110 -100 127 -47 11 -398 11 -435 1z m287 -1235 c29 -29 34
-41 34 -79 0 -115 -154 -157 -213 -58 -28 48 -22 98 17 137 29 29 41 34 81 34
40 0 52 -5 81 -34z"/>
<path d="M6418 10546 c-36 -13 -80 -33 -97 -45 -31 -22 -61 -58 -61 -73 0 -5
50 -8 111 -8 75 0 108 3 104 11 -12 19 -7 76 9 108 9 17 13 31 9 31 -5 0 -38
-11 -75 -24z"/>
<path d="M3257 10445 c-44 -15 -87 -51 -87 -73 0 -11 9 -13 38 -9 20 3 89 9
152 13 63 4 126 10 140 14 l25 7 -32 16 c-39 21 -138 47 -173 47 -14 -1 -42
-7 -63 -15z"/>
<path d="M5150 8990 l0 -110 355 0 355 0 0 110 0 110 -355 0 -355 0 0 -110z"/>
<path d="M5125 8783 c-39 -244 -115 -424 -237 -558 -32 -35 -58 -66 -58 -70 0
-8 149 -185 157 -185 3 0 33 7 66 16 184 48 343 57 415 24 23 -10 42 -24 42
-30 0 -7 14 0 30 14 17 14 47 28 67 32 61 11 213 -3 332 -31 62 -15 113 -25
115 -24 1 2 35 43 74 90 40 48 72 90 72 94 0 4 -25 34 -55 66 -120 130 -197
309 -240 562 l-6 37 -384 0 -384 0 -6 -37z m552 -215 c-11 -202 -73 -318 -170
-318 -106 0 -176 136 -177 343 l0 77 176 0 177 0 -6 -102z"/>
<path d="M7211 7603 c0 -17 -16 -60 -34 -94 -37 -73 -103 -129 -181 -155 -93
-31 -225 -7 -301 55 -13 10 -12 6 4 -12 32 -36 113 -73 178 -82 67 -9 160 15
220 56 73 51 131 163 120 235 l-4 29 -2 -32z"/>
<path d="M9630 10556 c-60 -16 -129 -55 -152 -87 -27 -37 -38 -90 -38 -199 0
-111 8 -170 23 -170 19 0 231 222 274 288 50 75 69 132 53 162 -9 16 -20 20
-63 19 -29 0 -72 -6 -97 -13z"/>
<path d="M16426 10226 c-75 -76 -127 -238 -129 -406 -1 -87 3 -113 20 -152 56
-124 183 -76 267 102 30 62 31 70 31 195 0 100 -4 142 -18 183 -41 115 -104
144 -171 78z"/>
<path d="M22011 10234 c-37 -31 -94 -145 -118 -234 -22 -83 -24 -293 -4 -330
27 -49 53 -70 89 -70 69 0 128 56 185 178 31 65 32 72 31 192 0 104 -4 134
-22 181 -43 108 -98 136 -161 83z"/>
<path d="M23313 10248 c-35 -17 -89 -105 -119 -193 -36 -107 -46 -310 -19
-380 50 -131 184 -86 266 90 53 112 57 272 10 395 -34 90 -77 117 -138 88z"/>
<path d="M10233 10238 c-35 -17 -65 -91 -71 -171 -5 -65 -3 -70 13 -63 15 5
239 140 254 153 3 2 -9 17 -25 34 -50 53 -119 72 -171 47z"/>
<path d="M11260 10222 c-29 -29 -43 -70 -54 -152 -11 -81 -2 -81 138 5 69 43
126 83 126 90 0 17 -51 62 -83 74 -52 20 -96 14 -127 -17z"/>
<path d="M17907 10239 c-32 -19 -60 -90 -65 -166 -2 -40 -1 -73 3 -73 17 0
255 153 255 164 0 18 -50 63 -83 75 -35 14 -87 14 -110 0z"/>
<path d="M19823 10197 c-69 -75 -131 -230 -153 -386 -19 -129 2 -201 59 -201
51 0 131 111 202 281 29 70 30 81 29 194 -1 135 -10 155 -65 155 -25 0 -41 -9
-72 -43z"/>
<path d="M15752 8950 c-86 -39 -242 -213 -242 -271 0 -40 14 -44 68 -18 54 26
231 196 256 247 32 62 -1 79 -82 42z"/>
<path d="M16173 8955 c-42 -18 -89 -92 -104 -164 -18 -89 -7 -291 22 -375 70
-210 178 -203 243 14 56 187 30 471 -48 525 -26 19 -71 19 -113 0z"/>
<path d="M17264 8956 c-40 -18 -77 -67 -99 -131 -24 -68 -25 -264 -2 -358 44
-177 127 -252 193 -174 67 79 99 220 91 406 -6 148 -17 193 -62 238 -36 36
-69 41 -121 19z"/>
<path d="M21725 7303 c-243 -324 -249 -332 -242 -339 2 -2 67 11 143 30 77 19
175 40 218 47 43 7 80 18 81 24 5 16 36 537 32 541 -1 2 -106 -134 -232 -303z"/>
<path d="M12791 7684 c-101 -51 -174 -187 -200 -378 -54 -389 100 -886 275
-886 95 0 203 201 250 465 21 121 25 416 6 515 -52 268 -166 366 -331 284z"/>
<path d="M15165 7711 c-55 -25 -103 -75 -134 -141 -35 -74 -37 -210 -4 -282
39 -85 144 -178 202 -178 26 0 109 93 149 168 39 73 66 189 57 246 -15 94 -57
153 -130 187 -50 23 -89 23 -140 0z"/>
<path d="M15201 6924 c-112 -101 -175 -305 -129 -415 45 -104 208 -138 317
-66 57 38 74 81 61 159 -15 95 -36 157 -75 223 -35 60 -105 135 -125 135 -5 0
-28 -16 -49 -36z"/>
<path d="M18812 7697 c-47 -14 -123 -86 -154 -144 -150 -275 -82 -909 118
-1093 60 -55 98 -55 158 0 114 106 183 339 193 655 5 188 -6 302 -43 412 -22
68 -70 139 -109 163 -36 22 -107 25 -163 7z"/>
<path d="M19868 7695 c-122 -45 -308 -218 -438 -409 -56 -83 -59 -156 -6 -156
63 0 230 124 391 291 113 118 179 204 190 250 5 22 2 27 -17 33 -35 9 -79 6
-120 -9z"/>
</g>
</svg>
